<svg xmlns="http://www.w3.org/2000/svg" xmlns:xlink="http://www.w3.org/1999/xlink" id="Capa_1" x="0" y="0" version="1.1" viewBox="0 0 512 512" xml:space="preserve" style="enable-background:new 0 0 512 512"><path style="fill:#b7b2b8" d="M504,216H264v-64h-16v64H8c-4.418,0-8,3.582-8,8s3.582,8,8,8h496c4.418,0,8-3.582,8-8	S508.418,216,504,216z"/><rect style="fill:#9c969e" width="16" height="32" x="248" y="144"/><path style="fill:#b7b2b8" d="M504,408H400v-64h-16v64H128v-64h-16v64H8c-4.418,0-8,3.582-8,8s3.582,8,8,8h104h16h256h16h104	c4.418,0,8-3.582,8-8S508.418,408,504,408z"/><path style="fill:#59d8ff" d="M152,160.001h208c4.418,0,8-3.582,8-8v-64c0-4.418-3.582-8-8-8H152c-4.418,0-8,3.582-8,8v64	C144,156.419,147.582,160.001,152,160.001z"/><circle style="fill:#99e9df" cx="256" cy="224" r="16"/><g><rect style="fill:#99e7ff" width="16" height="80" x="192" y="80"/><rect style="fill:#99e7ff" width="16" height="80" x="248" y="80"/><rect style="fill:#99e7ff" width="16" height="80" x="304" y="80"/></g><rect style="fill:#9c969e" width="16" height="32" x="112" y="336"/><path style="fill:#59d8ff" d="M16,352h208c4.418,0,8-3.582,8-8v-64c0-4.418-3.582-8-8-8H16c-4.418,0-8,3.582-8,8v64	C8,348.418,11.582,352,16,352z"/><circle style="fill:#99e9df" cx="120" cy="416" r="16"/><g><rect style="fill:#99e7ff" width="16" height="80" x="56" y="272"/><rect style="fill:#99e7ff" width="16" height="80" x="112" y="272"/><rect style="fill:#99e7ff" width="16" height="80" x="168" y="272"/></g><rect style="fill:#9c969e" width="16" height="32" x="384" y="336"/><path style="fill:#59d8ff" d="M288,352h208c4.418,0,8-3.582,8-8v-64c0-4.418-3.582-8-8-8H288c-4.418,0-8,3.582-8,8v64	C280,348.418,283.582,352,288,352z"/><circle style="fill:#99e9df" cx="392" cy="416" r="16"/><g><rect style="fill:#99e7ff" width="16" height="80" x="328" y="272"/><rect style="fill:#99e7ff" width="16" height="80" x="384" y="272"/><rect style="fill:#99e7ff" width="16" height="80" x="440" y="272"/></g></svg>